<svg xmlns="http://www.w3.org/2000/svg" viewBox="0 0 200 200">
  <defs>
    <radialGradient id="centerGrad" cx="50%" cy="50%" r="50%">
      <stop offset="0%" style="stop-color:#e0e0e0;stop-opacity:1" />
      <stop offset="100%" style="stop-color:#808080;stop-opacity:1" />
    </radialGradient>
    <linearGradient id="purpleGrad" x1="0%" y1="0%" x2="100%" y2="100%">
      <stop offset="0%" style="stop-color:#c084fc;stop-opacity:1" />
      <stop offset="100%" style="stop-color:#8b5cf6;stop-opacity:1" />
    </linearGradient>
    <linearGradient id="silverGrad" x1="0%" y1="0%" x2="100%" y2="100%">
      <stop offset="0%" style="stop-color:#f3f4f6;stop-opacity:1" />
      <stop offset="100%" style="stop-color:#9ca3af;stop-opacity:1" />
    </linearGradient>
  </defs>
  
  <!-- Center circle -->
  <circle cx="100" cy="100" r="35" fill="url(#centerGrad)" stroke="#4a5568" stroke-width="2"/>
  
  <!-- Outer ring elements -->
  <!-- Top -->
  <polygon points="100,20 85,50 115,50" fill="url(#purpleGrad)" stroke="#4a5568" stroke-width="1"/>
  <polygon points="85,50 70,65 100,65 115,50" fill="url(#silverGrad)" stroke="#4a5568" stroke-width="1"/>
  <polygon points="115,50 130,65 100,65 85,50" fill="url(#silverGrad)" stroke="#4a5568" stroke-width="1"/>
  
  <!-- Top Right -->
  <polygon points="150,35 135,50 150,65" fill="url(#purpleGrad)" stroke="#4a5568" stroke-width="1"/>
  <polygon points="135,50 120,65 135,80 150,65" fill="url(#silverGrad)" stroke="#4a5568" stroke-width="1"/>
  
  <!-- Right -->
  <polygon points="180,100 150,85 150,115" fill="url(#purpleGrad)" stroke="#4a5568" stroke-width="1"/>
  <polygon points="150,85 135,70 135,100 150,115" fill="url(#silverGrad)" stroke="#4a5568" stroke-width="1"/>
  <polygon points="150,115 135,130 135,100 150,85" fill="url(#silverGrad)" stroke="#4a5568" stroke-width="1"/>
  
  <!-- Bottom Right -->
  <polygon points="150,165 135,150 150,135" fill="url(#purpleGrad)" stroke="#4a5568" stroke-width="1"/>
  <polygon points="135,150 120,135 135,120 150,135" fill="url(#silverGrad)" stroke="#4a5568" stroke-width="1"/>
  
  <!-- Bottom -->
  <polygon points="100,180 115,150 85,150" fill="url(#purpleGrad)" stroke="#4a5568" stroke-width="1"/>
  <polygon points="115,150 130,135 100,135 85,150" fill="url(#silverGrad)" stroke="#4a5568" stroke-width="1"/>
  <polygon points="85,150 70,135 100,135 115,150" fill="url(#silverGrad)" stroke="#4a5568" stroke-width="1"/>
  
  <!-- Bottom Left -->
  <polygon points="50,165 65,150 50,135" fill="url(#purpleGrad)" stroke="#4a5568" stroke-width="1"/>
  <polygon points="65,150 80,135 65,120 50,135" fill="url(#silverGrad)" stroke="#4a5568" stroke-width="1"/>
  
  <!-- Left -->
  <polygon points="20,100 50,115 50,85" fill="url(#purpleGrad)" stroke="#4a5568" stroke-width="1"/>
  <polygon points="50,115 65,130 65,100 50,85" fill="url(#silverGrad)" stroke="#4a5568" stroke-width="1"/>
  <polygon points="50,85 65,70 65,100 50,115" fill="url(#silverGrad)" stroke="#4a5568" stroke-width="1"/>
  
  <!-- Top Left -->
  <polygon points="50,35 65,50 50,65" fill="url(#purpleGrad)" stroke="#4a5568" stroke-width="1"/>
  <polygon points="65,50 80,65 65,80 50,65" fill="url(#silverGrad)" stroke="#4a5568" stroke-width="1"/>
</svg>